<svg width="430" height="291" viewBox="0 0 430 291" fill="none" xmlns="http://www.w3.org/2000/svg">
<path opacity="0.9" fill-rule="evenodd" clip-rule="evenodd" d="M533.343 181.273C523.561 208.776 463.734 203.392 427.897 225.641C401.249 242.186 400.698 284.602 358.065 290.096C303.515 297.124 292.914 261.025 223.613 256.274C189.339 253.923 174.306 275.13 126.582 275.13C78.8578 275.13 8.87097 239.297 -23.4547 225.641C-86.8202 198.871 -105 169.9 -105 145.569C-105 121.238 -58.4249 91.9384 4.96899 91.9384C68.3629 91.9384 95.0763 115.303 141.186 115.89C171.889 116.281 186.814 95.656 216.487 91.9384C251.204 87.5892 288.583 88.137 322.909 93.1239C384.225 102.032 545.557 146.93 533.343 181.273Z" fill="#F4B8AD"/>
<rect width="430" height="170" fill="#F5BFB5"/>
</svg>
