<svg width="338" height="74" viewBox="0 0 338 74" fill="none" xmlns="http://www.w3.org/2000/svg">
<path d="M1 55.9409L3.33333 46.2948C5.66667 36.6487 10.3333 17.3565 15 17.5946C19.6667 17.8327 24.3333 37.6011 29 39.1922C33.6667 40.7832 38.3333 24.197 43 24.5023C47.6667 24.8075 52.3333 42.0043 57 48.4102C61.6667 54.8161 66.3333 50.4311 71 41.457C75.6667 32.4828 80.3333 18.9196 85 17.7851C89.6667 16.6505 94.3333 27.9447 99 25.5529C103.667 23.1611 108.333 7.08327 113 9.8827C117.667 12.6821 122.333 34.3588 127 45.7559C131.667 57.1531 136.333 58.2707 141 55.8329C145.667 53.3951 150.333 47.4019 155 42.4073C159.667 37.4127 164.333 33.4166 169 23.069C173.667 12.7213 178.333 -3.97809 183 2.42024C187.667 8.81857 192.333 38.3146 197 48.064C201.667 57.8134 206.333 47.8162 211 42.734C215.667 37.6519 220.333 37.4848 225 36.3061C229.667 35.1273 234.333 32.9368 239 31.1272C243.667 29.3176 248.333 27.8889 253 34.7579C257.667 41.6269 262.333 56.7936 267 56.6977C271.667 56.6019 276.333 41.2435 281 30.1689C285.667 19.0943 290.333 12.3036 295 18.4966C299.667 24.6897 304.333 43.8667 309 46.2775C313.667 48.6884 318.333 34.3331 323 35.9925C327.667 37.6519 332.333 55.326 334.667 64.163L337 73" stroke="#F9A144" stroke-width="2"/>
</svg>
