<svg width="338" height="74" viewBox="0 0 338 74" fill="none" xmlns="http://www.w3.org/2000/svg">
<path d="M1 37L2.27284 37.029L3.54569 37.0656L4.81853 37.1068L6.09137 37.1483L7.36422 37.1837L8.63706 37.2052L9.9099 37.2046L11.1827 37.1738L12.4556 37.1066L13.7284 37L15.0013 36.8562L16.2741 36.6833L17.547 36.4967L18.8198 36.3186L20.0927 36.1769L21.3655 36.1029L22.6383 36.1277L23.9112 36.2773L25.184 36.5679L26.4569 37L27.7297 37.5549L29.0026 38.1915L30.2754 38.8467L31.5482 39.4386L32.8211 39.873L34.0939 40.0539L35.3668 39.8962L36.6396 39.3401L37.9125 38.3648L39.1853 37L40.4581 35.3331L41.731 33.5089L43.0038 31.7227L44.2767 30.2034L45.5495 29.1904L46.8224 28.9036L48.0952 29.5112L49.368 31.0985L50.6409 33.6432L51.9137 37L53.1866 40.9L54.4594 44.9662L55.7323 48.7448L57.0051 51.7526L58.2779 53.5328L59.5508 53.7168L60.8236 52.0807L62.0965 48.5907L63.3693 43.4301L64.6422 37L65.915 29.8936L67.1879 22.8431L68.4607 16.6432L69.7335 12.0614L71.0064 9.74197L72.2792 10.1191L73.5521 13.3488L74.8249 19.271L76.0978 27.4074L77.3706 37L78.6434 47.0844L79.9163 56.5936L81.1891 64.4787L82.462 69.8324L83.7348 72L85.0077 70.6636L86.2805 65.8876L87.5533 58.1197L88.8262 48.145L90.099 37L91.3719 25.855L92.6447 15.8803L93.9176 8.11239L95.1904 3.33643L96.4633 2L97.7361 4.16759L99.0089 9.52126L100.282 17.4064L101.555 26.9156L102.827 37L104.1 46.5926L105.373 54.729L106.646 60.6512L107.919 63.8809L109.192 64.258L110.465 61.9386L111.737 57.3568L113.01 51.1569L114.283 44.1064L115.556 37L116.829 30.5699L118.102 25.4093L119.374 21.9193L120.647 20.2832L121.92 20.4672L123.193 22.2474L124.466 25.2552L125.739 29.0338L127.011 33.1L128.284 37L129.557 40.3568L130.83 42.9015L132.103 44.4888L133.376 45.0964L134.649 44.8096L135.921 43.7966L137.194 42.2773L138.467 40.4911L139.74 38.6669L141.013 37L142.286 35.6352L143.558 34.6599L144.831 34.1038L146.104 33.9461L147.377 34.127L148.65 34.5614L149.923 35.1533L151.196 35.8085L152.468 36.4451L153.741 37L155.014 37.4321L156.287 37.7227L157.56 37.8723L158.833 37.8971L160.105 37.8231L161.378 37.6814L162.651 37.5033L163.924 37.3167L165.197 37.1438L166.47 37L167.742 36.8934L169.015 36.8262L170.288 36.7954L171.561 36.7948L172.834 36.8163L174.107 36.8517L175.38 36.8932L176.652 36.9344L177.925 36.971L179.198 37" stroke="#F9A144" stroke-width="2"/>
<path d="M158.802 37L160.075 37.029L161.348 37.0656L162.62 37.1068L163.893 37.1483L165.166 37.1837L166.439 37.2052L167.712 37.2046L168.985 37.1738L170.257 37.1066L171.53 37L172.803 36.8562L174.076 36.6833L175.349 36.4967L176.622 36.3186L177.895 36.1769L179.167 36.1029L180.44 36.1277L181.713 36.2773L182.986 36.5679L184.259 37L185.532 37.5549L186.804 38.1915L188.077 38.8467L189.35 39.4386L190.623 39.873L191.896 40.0539L193.169 39.8962L194.441 39.3401L195.714 38.3648L196.987 37L198.26 35.3331L199.533 33.5089L200.806 31.7227L202.079 30.2034L203.351 29.1904L204.624 28.9036L205.897 29.5112L207.17 31.0985L208.443 33.6432L209.716 37L210.988 40.9L212.261 44.9662L213.534 48.7448L214.807 51.7526L216.08 53.5328L217.353 53.7168L218.626 52.0807L219.898 48.5907L221.171 43.4301L222.444 37L223.717 29.8936L224.99 22.8431L226.263 16.6432L227.535 12.0614L228.808 9.74197L230.081 10.1191L231.354 13.3488L232.627 19.271L233.9 27.4074L235.172 37L236.445 47.0844L237.718 56.5936L238.991 64.4787L240.264 69.8324L241.537 72L242.81 70.6636L244.082 65.8876L245.355 58.1197L246.628 48.145L247.901 37L249.174 25.855L250.447 15.8803L251.719 8.11239L252.992 3.33643L254.265 2L255.538 4.16759L256.811 9.52126L258.084 17.4064L259.357 26.9156L260.629 37L261.902 46.5926L263.175 54.729L264.448 60.6512L265.721 63.8809L266.994 64.258L268.266 61.9386L269.539 57.3568L270.812 51.1569L272.085 44.1064L273.358 37L274.631 30.5699L275.903 25.4093L277.176 21.9193L278.449 20.2832L279.722 20.4672L280.995 22.2474L282.268 25.2552L283.541 29.0338L284.813 33.1L286.086 37L287.359 40.3568L288.632 42.9015L289.905 44.4888L291.178 45.0964L292.45 44.8096L293.723 43.7966L294.996 42.2773L296.269 40.4911L297.542 38.6669L298.815 37L300.087 35.6352L301.36 34.6599L302.633 34.1038L303.906 33.9461L305.179 34.127L306.452 34.5614L307.725 35.1533L308.997 35.8085L310.27 36.4451L311.543 37L312.816 37.4321L314.089 37.7227L315.362 37.8723L316.634 37.8971L317.907 37.8231L319.18 37.6814L320.453 37.5033L321.726 37.3167L322.999 37.1438L324.272 37L325.544 36.8934L326.817 36.8262L328.09 36.7954L329.363 36.7948L330.636 36.8163L331.909 36.8517L333.181 36.8932L334.454 36.9344L335.727 36.971L337 37" stroke="#F9A144" stroke-width="2"/>
</svg>
