<svg width="44" height="44" viewBox="0 0 44 44" fill="none" xmlns="http://www.w3.org/2000/svg">
<mask id="mask0_4_101" style="mask-type:alpha" maskUnits="userSpaceOnUse" x="0" y="0" width="44" height="44">
<rect width="44" height="44" fill="#D9D9D9"/>
</mask>
<g mask="url(#mask0_4_101)">
<path d="M28.4166 20.1667C29.1805 20.1667 29.8298 19.8993 30.3645 19.3646C30.8993 18.8299 31.1666 18.1805 31.1666 17.4167C31.1666 16.6528 30.8993 16.0035 30.3645 15.4687C29.8298 14.934 29.1805 14.6667 28.4166 14.6667C27.6527 14.6667 27.0034 14.934 26.4687 15.4687C25.934 16.0035 25.6666 16.6528 25.6666 17.4167C25.6666 18.1805 25.934 18.8299 26.4687 19.3646C27.0034 19.8993 27.6527 20.1667 28.4166 20.1667ZM15.5833 20.1667C16.3472 20.1667 16.9965 19.8993 17.5312 19.3646C18.0659 18.8299 18.3333 18.1805 18.3333 17.4167C18.3333 16.6528 18.0659 16.0035 17.5312 15.4687C16.9965 14.934 16.3472 14.6667 15.5833 14.6667C14.8194 14.6667 14.1701 14.934 13.6354 15.4687C13.1007 16.0035 12.8333 16.6528 12.8333 17.4167C12.8333 18.1805 13.1007 18.8299 13.6354 19.3646C14.1701 19.8993 14.8194 20.1667 15.5833 20.1667ZM22 32.0833C24.0777 32.0833 25.9645 31.4951 27.6604 30.3187C29.3562 29.1424 30.5861 27.5917 31.35 25.6667H28.325C27.6527 26.7972 26.759 27.691 25.6437 28.3479C24.5284 29.0049 23.3138 29.3333 22 29.3333C20.6861 29.3333 19.4715 29.0049 18.3562 28.3479C17.2409 27.691 16.3472 26.7972 15.675 25.6667H12.65C13.4138 27.5917 14.6437 29.1424 16.3395 30.3187C18.0354 31.4951 19.9222 32.0833 22 32.0833ZM22 40.3333C19.4638 40.3333 17.0805 39.8521 14.85 38.8896C12.6194 37.9271 10.6791 36.6208 9.02913 34.9708C7.37913 33.3208 6.07288 31.3805 5.11038 29.15C4.14788 26.9194 3.66663 24.5361 3.66663 22C3.66663 19.4639 4.14788 17.0805 5.11038 14.85C6.07288 12.6194 7.37913 10.6792 9.02913 9.02916C10.6791 7.37916 12.6194 6.07291 14.85 5.11041C17.0805 4.14791 19.4638 3.66666 22 3.66666C24.5361 3.66666 26.9194 4.14791 29.15 5.11041C31.3805 6.07291 33.3208 7.37916 34.9708 9.02916C36.6208 10.6792 37.927 12.6194 38.8895 14.85C39.852 17.0805 40.3333 19.4639 40.3333 22C40.3333 24.5361 39.852 26.9194 38.8895 29.15C37.927 31.3805 36.6208 33.3208 34.9708 34.9708C33.3208 36.6208 31.3805 37.9271 29.15 38.8896C26.9194 39.8521 24.5361 40.3333 22 40.3333ZM22 36.6667C26.0944 36.6667 29.5625 35.2458 32.4041 32.4042C35.2458 29.5625 36.6666 26.0944 36.6666 22C36.6666 17.9055 35.2458 14.4375 32.4041 11.5958C29.5625 8.75416 26.0944 7.33332 22 7.33332C17.9055 7.33332 14.4375 8.75416 11.5958 11.5958C8.75413 14.4375 7.33329 17.9055 7.33329 22C7.33329 26.0944 8.75413 29.5625 11.5958 32.4042C14.4375 35.2458 17.9055 36.6667 22 36.6667Z" fill="#F4B8AD"/>
</g>
</svg>
