<svg width="44" height="44" viewBox="0 0 44 44" fill="none" xmlns="http://www.w3.org/2000/svg">
<mask id="mask0_30_9" style="mask-type:alpha" maskUnits="userSpaceOnUse" x="0" y="0" width="44" height="44">
<rect width="44" height="44" fill="#D9D9D9"/>
</mask>
<g mask="url(#mask0_30_9)">
<path d="M22.0001 32.0833C24.0779 32.0833 25.9647 31.4951 27.6605 30.3187C29.3563 29.1424 30.5862 27.5917 31.3501 25.6667H12.6501C13.414 27.5917 14.6438 29.1424 16.3397 30.3187C18.0355 31.4951 19.9223 32.0833 22.0001 32.0833ZM14.3001 20.1667L16.3167 18.2417L18.2417 20.1667L20.1667 18.2417L16.3167 14.3L12.3751 18.2417L14.3001 20.1667ZM25.7584 20.1667L27.6834 18.2417L29.7001 20.1667L31.6251 18.2417L27.6834 14.3L23.8334 18.2417L25.7584 20.1667ZM22.0001 40.3333C19.464 40.3333 17.0806 39.8521 14.8501 38.8896C12.6195 37.9271 10.6792 36.6208 9.02925 34.9708C7.37925 33.3208 6.073 31.3805 5.1105 29.15C4.148 26.9194 3.66675 24.5361 3.66675 22C3.66675 19.4639 4.148 17.0805 5.1105 14.85C6.073 12.6194 7.37925 10.6792 9.02925 9.02916C10.6792 7.37916 12.6195 6.07291 14.8501 5.11041C17.0806 4.14791 19.464 3.66666 22.0001 3.66666C24.5362 3.66666 26.9195 4.14791 29.1501 5.11041C31.3806 6.07291 33.3209 7.37916 34.9709 9.02916C36.6209 10.6792 37.9272 12.6194 38.8897 14.85C39.8522 17.0805 40.3334 19.4639 40.3334 22C40.3334 24.5361 39.8522 26.9194 38.8897 29.15C37.9272 31.3805 36.6209 33.3208 34.9709 34.9708C33.3209 36.6208 31.3806 37.9271 29.1501 38.8896C26.9195 39.8521 24.5362 40.3333 22.0001 40.3333Z" fill="white"/>
</g>
</svg>
