<svg width="44" height="44" viewBox="0 0 44 44" fill="none" xmlns="http://www.w3.org/2000/svg">
<mask id="mask0_4_94" style="mask-type:alpha" maskUnits="userSpaceOnUse" x="0" y="0" width="44" height="44">
<rect width="44" height="44" fill="#D9D9D9"/>
</mask>
<g mask="url(#mask0_4_94)">
<path d="M22 32.0833C24.0777 32.0833 25.9645 31.4951 27.6604 30.3187C29.3562 29.1424 30.5861 27.5917 31.35 25.6667H12.65C13.4138 27.5917 14.6437 29.1424 16.3395 30.3187C18.0354 31.4951 19.9222 32.0833 22 32.0833ZM14.3 20.1667L16.3166 18.2417L18.2416 20.1667L20.1666 18.2417L16.3166 14.3L12.375 18.2417L14.3 20.1667ZM25.7583 20.1667L27.6833 18.2417L29.7 20.1667L31.625 18.2417L27.6833 14.3L23.8333 18.2417L25.7583 20.1667ZM22 40.3333C19.4638 40.3333 17.0805 39.8521 14.85 38.8896C12.6194 37.9271 10.6791 36.6208 9.02913 34.9708C7.37913 33.3208 6.07288 31.3805 5.11038 29.15C4.14788 26.9194 3.66663 24.5361 3.66663 22C3.66663 19.4639 4.14788 17.0805 5.11038 14.85C6.07288 12.6194 7.37913 10.6792 9.02913 9.02916C10.6791 7.37916 12.6194 6.07291 14.85 5.11041C17.0805 4.14791 19.4638 3.66666 22 3.66666C24.5361 3.66666 26.9194 4.14791 29.15 5.11041C31.3805 6.07291 33.3208 7.37916 34.9708 9.02916C36.6208 10.6792 37.927 12.6194 38.8895 14.85C39.852 17.0805 40.3333 19.4639 40.3333 22C40.3333 24.5361 39.852 26.9194 38.8895 29.15C37.927 31.3805 36.6208 33.3208 34.9708 34.9708C33.3208 36.6208 31.3805 37.9271 29.15 38.8896C26.9194 39.8521 24.5361 40.3333 22 40.3333Z" fill="#F4B8AD"/>
</g>
</svg>
